<svg
                  width="28"
                  height="28"
                  viewBox="0 0 28 28"
                  fill="none"
                  xmlns="http://www.w3.org/2000/svg"
                >
                  <path
                    d="M13.9993 14.0002C17.221 14.0002 19.8327 11.3885 19.8327 8.16683C19.8327 4.94517 17.221 2.3335 13.9993 2.3335C10.7777 2.3335 8.16602 4.94517 8.16602 8.16683C8.16602 11.3885 10.7777 14.0002 13.9993 14.0002Z"
                    stroke="black"
                    stroke-width="1.5"
                  />
                  <path
                    d="M19.8321 16.3335H20.2428C21.0957 16.3337 21.9192 16.6454 22.5585 17.21C23.1978 17.7746 23.609 18.5532 23.7148 19.3995L24.1709 23.0442C24.212 23.3725 24.1827 23.7058 24.0851 24.022C23.9874 24.3381 23.8237 24.6299 23.6047 24.8779C23.3857 25.126 23.1164 25.3246 22.8148 25.4606C22.5131 25.5966 22.186 25.6669 21.8551 25.6668H6.14244C5.81155 25.6669 5.48443 25.5966 5.18279 25.4606C4.88115 25.3246 4.61189 25.126 4.39287 24.8779C4.17386 24.6299 4.0101 24.3381 3.91247 24.022C3.81484 23.7058 3.78557 23.3725 3.8266 23.0442L4.2816 19.3995C4.38741 18.5528 4.79892 17.7738 5.43874 17.2092C6.07856 16.6446 6.90261 16.3332 7.75594 16.3335H8.16544"
                    stroke="black"
                    stroke-width="1.5"
                    stroke-linecap="round"
                    stroke-linejoin="round"
                  />
                </svg>